<svg width="22" height="13" viewBox="0 0 22 13" fill="none" xmlns="http://www.w3.org/2000/svg">
<path d="M21.78 0H0.22C0.099 0 0 0.0664773 0 0.147727V1.32955C0 1.4108 0.099 1.47727 0.22 1.47727H21.78C21.901 1.47727 22 1.4108 22 1.32955V0.147727C22 0.0664773 21.901 0 21.78 0ZM21.78 11.5227H0.22C0.099 11.5227 0 11.5892 0 11.6705V12.8523C0 12.9335 0.099 13 0.22 13H21.78C21.901 13 22 12.9335 22 12.8523V11.6705C22 11.5892 21.901 11.5227 21.78 11.5227ZM21.78 5.76136H0.22C0.099 5.76136 0 5.82784 0 5.90909V7.09091C0 7.17216 0.099 7.23864 0.22 7.23864H21.78C21.901 7.23864 22 7.17216 22 7.09091V5.90909C22 5.82784 21.901 5.76136 21.78 5.76136Z" fill="#0D0D0D"/>
</svg>
