<svg width="28" height="28" viewBox="0 0 28 28" fill="none" xmlns="http://www.w3.org/2000/svg">
<path d="M15.3183 25.8885L13.4167 21.4202C15.2483 20.7435 16.9633 19.8335 18.55 18.7718L15.3183 25.8885ZM6.58 14.5835L2.11167 12.6818L9.22833 9.45016C8.16667 11.0368 7.25667 12.7518 6.58 14.5835ZM22.4233 4.66683C22.75 4.66683 23.0417 4.66683 23.2867 4.72516C23.485 6.34683 23.2633 9.6835 19.4367 13.5102C17.4533 15.5052 15.085 17.0335 12.425 18.0485L9.91667 15.5985C10.99 12.9035 12.5183 10.5352 14.49 8.5635C17.71 5.3435 20.58 4.66683 22.4233 4.66683ZM22.4233 2.3335C20.1133 2.3335 16.6133 3.1385 12.8333 6.9185C10.2783 9.4735 8.75 12.2852 7.75833 14.7468C7.43167 15.6218 7.65333 16.5785 8.295 17.2318L10.78 19.7052C11.2233 20.1485 11.8183 20.4168 12.4367 20.4168C12.705 20.4168 12.985 20.3468 13.2533 20.2418C16.1916 19.1215 18.8596 17.3919 21.0817 15.1668C27.685 8.5635 25.2117 2.7885 25.2117 2.7885C25.2117 2.7885 24.15 2.3335 22.4233 2.3335ZM16.9633 11.0368C16.0533 10.1268 16.0533 8.64516 16.9633 7.73516C17.8733 6.82516 19.355 6.82516 20.265 7.73516C21.1633 8.64516 21.175 10.1268 20.265 11.0368C19.355 11.9468 17.8733 11.9468 16.9633 11.0368ZM10.36 19.2852L8.715 17.6402L10.36 19.2852ZM7.28 25.6668L11.5267 21.4202C11.13 21.3152 10.745 21.1402 10.395 20.8952L5.635 25.6668H7.28ZM2.33333 25.6668H3.97833L9.54333 20.1135L7.88667 18.4685L2.33333 24.0218V25.6668ZM2.33333 22.3652L7.105 17.6052C6.86 17.2552 6.685 16.8818 6.58 16.4735L2.33333 20.7202V22.3652Z" fill="white"/>
</svg>
