<svg width="93" height="89" viewBox="0 0 93 89" fill="none" xmlns="http://www.w3.org/2000/svg">
<g clip-path="url(#clip0)">
<path d="M3.87497 3.81165H89.1252V85.1884H3.87497V3.81165Z" fill="url(#paint0_radial)"/>
<path d="M3.87495 3.81187H89.1252V85.1886H3.87495V3.81187ZM0 88.9913H93.0002V0.00927734H0V88.9913ZM60.915 31.7234C60.915 31.4192 61.0313 31.267 61.3801 31.267H67.4639C67.7737 31.267 67.9288 31.381 67.9288 31.7234V61.7263C67.9288 62.0304 67.8513 62.1826 67.4639 62.1826H61.4576C61.0702 62.1826 60.9538 61.9925 60.9538 61.6883V31.7234H60.915ZM60.4888 23.0913C60.4888 20.6576 62.2325 19.2127 64.4415 19.2127C66.8052 19.2127 68.3939 20.7717 68.3939 23.0913C68.3939 25.601 66.7277 26.9699 64.364 26.9699C62.1163 26.9701 60.4888 25.601 60.4888 23.0913ZM43.0513 44.2341C41.9665 40.0131 39.409 30.8107 38.4401 26.3616H38.3626C37.5488 30.8107 35.4951 38.3399 33.8677 44.2341H43.0513ZM32.2788 50.3945L29.2175 61.8024C29.14 62.1064 29.0238 62.1825 28.6364 62.1825H22.9401C22.5526 62.1825 22.475 62.0684 22.5526 61.6121L33.5576 23.8137C33.7513 23.1293 33.8675 22.5208 33.945 20.6576C33.945 20.3915 34.0613 20.2774 34.255 20.2774H42.3925C42.6637 20.2774 42.78 20.3535 42.8576 20.6576L55.18 61.6882C55.2575 61.9922 55.18 62.1825 54.8701 62.1825H48.4375C48.1275 62.1825 47.9336 62.1064 47.8563 61.8404L44.6788 50.3945H32.2788Z" fill="white"/>
</g>
<defs>
<radialGradient id="paint0_radial" cx="0" cy="0" r="1" gradientUnits="userSpaceOnUse" gradientTransform="translate(31.9522 22.0482) scale(64.7901 61.5573)">
<stop stop-color="#0D0D0D"/>
<stop offset="1" stop-color="#0D0D0D"/>
</radialGradient>
<clipPath id="clip0">
<rect width="93" height="89" fill="white"/>
</clipPath>
</defs>
</svg>
