<svg width="88" height="123" viewBox="0 0 88 123" fill="none" xmlns="http://www.w3.org/2000/svg">
<g clip-path="url(#clip0)">
<path d="M0.0797119 17.8241C0.0797119 19.8924 2.05525 21.8231 5.16971 22.9114C4.54777 26.1121 5.05832 28.6921 6.76337 29.6973C8.51591 30.7306 11.1269 30.0154 13.6051 27.8007C16.0207 29.9259 18.4621 30.7623 20.1656 29.7541C21.9166 28.7179 22.449 25.9631 21.8099 22.6623C25.0539 21.5659 26.8685 19.9196 26.8685 17.8241C26.8685 15.8039 24.8893 14.0562 21.8168 12.9749C22.5049 9.53775 21.9219 7.02046 20.1462 5.9737C18.4343 4.9645 15.9645 5.8441 13.5134 8.02482C10.9633 5.7102 8.51791 5.00357 6.7441 6.05324C5.03378 7.06534 4.54577 9.69221 5.16971 12.9522C2.16033 14.0248 0.0797119 15.8121 0.0797119 17.8241Z" fill="white"/>
<path d="M21.1657 14.0483C20.9125 13.9595 20.6571 13.8773 20.3998 13.8016C20.4425 13.6244 20.482 13.4464 20.5182 13.2676C21.0979 10.3907 20.7189 8.07311 19.4244 7.31018C18.1834 6.57847 16.1536 7.34139 14.1036 9.16508C13.9016 9.34519 13.7041 9.53049 13.5113 9.72081C13.3821 9.59426 13.2507 9.47017 13.1171 9.3486C10.9687 7.39844 8.81517 6.57675 7.52212 7.34193C6.28223 8.07569 5.91498 10.2546 6.4369 12.981C6.48883 13.251 6.54746 13.5196 6.61273 13.7866C6.30802 13.875 6.01374 13.9693 5.7322 14.0696C3.21347 14.9673 1.60486 16.3743 1.60486 17.8337C1.60486 19.341 3.3316 20.8529 5.9552 21.7695C6.16794 21.8435 6.38244 21.912 6.59852 21.9751C6.52832 22.2627 6.466 22.5522 6.41163 22.8434C5.91403 25.5225 6.30266 27.6497 7.53928 28.3789C8.81654 29.1318 10.9602 28.3579 13.0477 26.4926C13.2127 26.3451 13.3783 26.1887 13.5441 26.0248C13.753 26.2308 13.9675 26.4309 14.1872 26.6247C16.2092 28.4034 18.2061 29.1216 19.4417 28.3904C20.7178 27.6353 21.1324 25.35 20.594 22.5697C20.5529 22.3573 20.505 22.1404 20.4513 21.9196C20.6019 21.8741 20.7496 21.8272 20.8937 21.7783C23.6212 20.8546 25.3956 19.3612 25.3956 17.8337C25.3956 16.3691 23.7352 14.9526 21.1657 14.0483Z" fill="#0D0D0D"/>
<path d="M20.5741 20.7921C20.4441 20.8362 20.3106 20.8787 20.1746 20.9199C19.8734 19.9455 19.467 18.9092 18.9698 17.8388C19.4444 16.7937 19.835 15.7708 20.1277 14.8026C20.371 14.8747 20.6073 14.9506 20.8349 15.0308C23.0365 15.8054 24.3794 16.951 24.3794 17.8336C24.3794 18.7738 22.929 19.9944 20.5742 20.7921H20.5741ZM19.597 22.7715C19.8351 24.0009 19.8691 25.1124 19.7114 25.9814C19.5697 26.7622 19.2848 27.2827 18.9325 27.4912C18.1827 27.9349 16.5792 27.3582 14.8502 25.837C14.6519 25.6627 14.4522 25.4765 14.2519 25.2795C14.9223 24.5299 15.5923 23.6585 16.2461 22.6908C17.3963 22.5865 18.4829 22.4159 19.4683 22.1831C19.5167 22.3833 19.5599 22.5795 19.597 22.7715ZM9.71565 27.4146C8.98315 27.679 8.39974 27.6866 8.04713 27.4787C7.29663 27.0363 6.98476 25.3281 7.41024 23.0371C7.46083 22.7663 7.51876 22.4971 7.58396 22.2296C8.55842 22.4499 9.6371 22.6085 10.79 22.7041C11.4482 23.651 12.1375 24.5213 12.8322 25.2835C12.6846 25.4295 12.5334 25.5717 12.3789 25.7101C11.4559 26.5351 10.5309 27.1202 9.71576 27.4146H9.71565ZM6.28396 20.7863C5.12388 20.381 4.16585 19.8542 3.50916 19.2794C2.91912 18.7628 2.62115 18.2499 2.62115 17.8336C2.62115 16.9481 3.91274 15.8185 6.06685 15.0507C6.33722 14.9547 6.61029 14.8669 6.88569 14.7873C7.18344 15.7772 7.57396 16.8123 8.04524 17.8589C7.56785 18.9212 7.17176 19.9727 6.87126 20.9742C6.67402 20.9165 6.47819 20.8539 6.28396 20.7863ZM7.43435 12.7814C6.98718 10.4454 7.2841 8.68325 8.03134 8.24108C8.82732 7.77006 10.5872 8.44171 12.4422 10.1255C12.5608 10.2331 12.6799 10.3458 12.7991 10.4624C12.108 11.2211 11.425 12.0849 10.7725 13.0263C9.65364 13.1323 8.58253 13.3026 7.59786 13.5307C7.53721 13.2823 7.48269 13.0324 7.43435 12.7813V12.7814ZM17.6966 15.3719C17.464 14.9612 17.2228 14.5557 16.9731 14.1556C17.7323 14.2535 18.4595 14.3838 19.1424 14.5432C18.9374 15.2149 18.6819 15.9174 18.381 16.6375C18.1611 16.211 17.9329 15.789 17.6966 15.3719ZM13.5116 11.2048C13.9804 11.724 14.4499 12.3037 14.9117 12.9326C13.9749 12.8874 13.0366 12.8872 12.0998 12.932C12.562 12.3089 13.0355 11.73 13.5116 11.2048ZM9.29986 15.379C9.06648 15.7928 8.84257 16.2122 8.62833 16.6367C8.33236 15.9191 8.07914 15.2135 7.87235 14.5322C8.55115 14.3769 9.27501 14.25 10.0292 14.1537C9.77674 14.5562 9.53356 14.9648 9.29986 15.379ZM10.0509 21.5878C9.27175 21.4989 8.53694 21.3784 7.85835 21.2274C8.0684 20.534 8.3272 19.8133 8.62949 19.0803C8.84463 19.5051 9.06952 19.9247 9.30397 20.3388C9.5432 20.7611 9.79224 21.1776 10.0509 21.5878ZM13.5398 24.5358C13.0581 24.0044 12.5776 23.4167 12.1083 22.7846C12.5638 22.8029 13.0283 22.8121 13.5003 22.8121C13.9852 22.8121 14.4646 22.8011 14.9364 22.7795C14.4731 23.4232 14.0053 24.0117 13.5398 24.5358ZM18.3906 19.0429C18.7086 19.7839 18.9767 20.5008 19.1896 21.1824C18.4997 21.3433 17.755 21.4729 16.9703 21.5692C17.2218 21.1616 17.4653 20.749 17.7007 20.3316C17.94 19.9073 18.17 19.4776 18.3906 19.0429ZM16.8203 19.8125C16.4599 20.4525 16.0792 21.0804 15.6789 21.6951C14.9731 21.7466 14.2436 21.7732 13.5003 21.7732C12.76 21.7732 12.0398 21.7497 11.3463 21.7037C10.9356 21.0904 10.5477 20.4615 10.1836 19.8182C9.82108 19.1784 9.48251 18.5247 9.16857 17.8586C9.48171 17.1923 9.81926 16.5383 10.1805 15.8979V15.8981C10.5416 15.2576 10.9264 14.6314 11.3341 14.0207C12.0416 13.966 12.767 13.9374 13.5004 13.9374C14.237 13.9374 14.9634 13.9663 15.6707 14.0214C16.0742 14.6311 16.4565 15.2551 16.817 15.8924C17.1795 16.5314 17.5215 17.1822 17.8426 17.8439C17.5248 18.5123 17.1839 19.1689 16.8204 19.8125H16.8203ZM18.9169 8.21018C19.7135 8.67991 20.0234 10.574 19.5228 13.0579C19.49 13.2197 19.4543 13.3809 19.4158 13.5414C18.4289 13.3086 17.357 13.1353 16.2348 13.0277C15.5811 12.0761 14.9038 11.2108 14.2238 10.4618C14.402 10.2862 14.5844 10.1152 14.7709 9.94884C16.5273 8.38617 18.1689 7.7692 18.9169 8.21018Z" fill="white"/>
<path d="M13.5003 15.6619C14.6737 15.6619 15.6248 16.6343 15.6248 17.8336C15.6248 19.0331 14.6737 20.0055 13.5003 20.0055C12.3271 20.0055 11.3759 19.0331 11.3759 17.8336C11.3759 16.6343 12.3271 15.6619 13.5003 15.6619Z" fill="#0D0D0D"/>
</g>
<g clip-path="url(#clip1)">
<path d="M55.1704 5.56812L53.3822 26.0541L45.3444 28.3329L37.3288 26.0572L35.5425 5.56812H55.1704Z" fill="white"/>
<path d="M45.3564 26.591L51.8514 24.7496L53.3794 7.24335H45.3564V26.591Z" fill="#0D0D0D"/>
<path d="M41.8803 12.2693H45.3564V9.75635H39.1949L39.2537 10.4305L39.8577 17.3554H45.3564V14.8425H42.1049L41.8803 12.2693ZM42.4342 18.6119H39.9675L40.3117 22.5576L45.3451 23.9865L45.3564 23.9833V21.3688L45.3457 21.3717L42.6091 20.6161L42.4342 18.6119Z" fill="#0D0D0D"/>
<path d="M37.3686 0H38.6173V1.26169H39.7596V0H41.0084V3.82071H39.7597V2.54131H38.6174V3.82071H37.3687V0H37.3686ZM42.6505 1.26704H41.5513V0H44.9992V1.26704H43.8994V3.82071H42.6507V1.26704H42.6506H42.6505ZM45.5464 0H46.8485L47.6494 1.3425L48.4496 0H49.7522V3.82071H48.5085V1.92695L47.6494 3.28542H47.6279L46.7682 1.92695V3.82071H45.5464V0ZM50.3736 0H51.6227V2.55784H53.3787V3.82071H50.3735V0H50.3736Z" fill="white"/>
<path d="M45.348 17.3554H48.3738L48.0885 20.6145L45.3479 21.3709V23.9853L50.3853 22.5576L50.4223 22.133L50.9998 15.5173L51.0597 14.8425H45.348V17.3554ZM45.348 12.2631V12.2693H51.2833L51.3325 11.7045L51.4445 10.4305L51.5032 9.75635H45.348V12.2632V12.2631Z" fill="white"/>
</g>
<g clip-path="url(#clip2)">
<path d="M56.5228 45.9342C56.5228 45.5073 56.4323 45.1225 56.2444 44.8006C56.0635 44.4787 55.792 44.2129 55.4302 44.0029C52.4237 42.2606 49.4103 40.5183 46.4038 38.776C45.5896 38.3072 44.8101 38.3212 44.0028 38.797C42.8058 39.5037 36.8068 42.9603 35.0252 44.0029C34.2875 44.4298 33.9326 45.0875 33.9326 45.9412V56.465C33.9326 56.8848 34.023 57.2557 34.197 57.5776C34.378 57.9065 34.6563 58.1864 35.0252 58.4033C36.8138 59.4459 42.8058 62.8955 44.0028 63.6092C44.8101 64.0849 45.5965 64.1059 46.4038 63.6302C49.4103 61.8809 52.4237 60.1456 55.4302 58.4033C55.806 58.1864 56.0774 57.9135 56.2583 57.5776C56.4323 57.2557 56.5228 56.8848 56.5228 56.465V45.9342Z" fill="white"/>
<path d="M45.2555 51.1611L34.1831 57.5705C34.3641 57.8994 34.6424 58.1793 35.0113 58.3962C36.7999 59.4388 42.7919 62.8884 43.9889 63.6022C44.7962 64.078 45.5826 64.099 46.3899 63.6232C49.3964 61.8738 52.4098 60.1385 55.4163 58.3962C55.7921 58.1793 56.0635 57.9064 56.2444 57.5705L45.2555 51.1611Z" fill="white"/>
<path d="M41.9777 53.0573C42.6249 54.1909 43.8358 54.9536 45.2208 54.9536C46.6196 54.9536 47.8375 54.1839 48.4778 53.0363L45.2556 51.1611L41.9777 53.0573Z" fill="white"/>
<path d="M56.5228 45.9342C56.5228 45.5073 56.4324 45.1225 56.2445 44.8006L45.2556 51.1611L56.2584 57.5706C56.4324 57.2487 56.5228 56.8779 56.5228 56.458V45.9342Z" fill="white"/>
<path d="M48.4777 53.0363C47.8375 54.1768 46.6196 54.9536 45.2207 54.9536C43.8288 54.9536 42.6179 54.1908 41.9777 53.0573C41.6645 52.5045 41.4835 51.8748 41.4835 51.196C41.4835 49.1178 43.1538 47.4385 45.2207 47.4385C46.5987 47.4385 47.8027 48.1942 48.4499 49.3138L51.7139 47.4245C50.4125 45.1714 47.9906 43.653 45.2138 43.653C41.066 43.653 37.7115 47.0327 37.7115 51.196C37.7115 52.5605 38.0734 53.848 38.7067 54.9536C40.0012 57.2137 42.437 58.739 45.2207 58.739C48.0115 58.739 50.4473 57.2067 51.7417 54.9326L48.4777 53.0363ZM52.6046 49.4117H51.86V53.0293H52.6046V49.4117ZM54.254 49.4117H53.5094V53.0293H54.254V49.4117Z" fill="#0D0D0D"/>
<path d="M54.8596 50.0205H51.2615V50.7692H54.8596V50.0205ZM54.8596 51.6718H51.2615V52.4206H54.8596V51.6718Z" fill="#0D0D0D"/>
</g>
<g clip-path="url(#clip3)">
<path d="M63.7268 6.98694H85.8223V28.1932H63.7268V6.98694Z" fill="url(#paint0_radial)"/>
<path d="M63.7269 6.98678H85.8224V28.193H63.7269V6.98678ZM62.7225 29.184H86.8267V5.99585H62.7225V29.184ZM78.5108 14.2603C78.5108 14.1811 78.5409 14.1414 78.6313 14.1414H80.2081C80.2884 14.1414 80.3286 14.1711 80.3286 14.2603V22.0789C80.3286 22.1581 80.3085 22.1978 80.2081 22.1978H78.6514C78.551 22.1978 78.5208 22.1483 78.5208 22.069V14.2603H78.5108ZM78.4003 12.0109C78.4003 11.3767 78.8522 11.0001 79.4248 11.0001C80.0374 11.0001 80.4492 11.4064 80.4492 12.0109C80.4492 12.6649 80.0173 13.0216 79.4047 13.0216C78.8221 13.0217 78.4003 12.6649 78.4003 12.0109ZM73.8808 17.5205C73.5996 16.4206 72.9367 14.0225 72.6856 12.8631H72.6655C72.4546 14.0225 71.9223 15.9845 71.5005 17.5205H73.8808ZM71.0887 19.1259L70.2953 22.0987C70.2752 22.1779 70.2451 22.1978 70.1446 22.1978H68.6682C68.5678 22.1978 68.5477 22.168 68.5678 22.0491L71.4201 12.1991C71.4703 12.0208 71.5005 11.8622 71.5206 11.3767C71.5206 11.3073 71.5507 11.2776 71.6009 11.2776H73.71C73.7803 11.2776 73.8104 11.2974 73.8306 11.3767L77.0243 22.069C77.0444 22.1482 77.0243 22.1978 76.944 22.1978H75.2768C75.1964 22.1978 75.1462 22.1779 75.1261 22.1086L74.3026 19.1259H71.0887Z" fill="white"/>
</g>
<g clip-path="url(#clip4)">
<path d="M45.3732 70.3672C38.6131 70.3672 39.0352 73.3266 39.0352 73.3266L39.0427 76.3925H45.4937V77.313H36.4804C36.4804 77.313 32.1546 76.8178 32.1546 83.7033C32.1546 90.5891 35.9303 90.3449 35.9303 90.3449H38.1836V87.1496C38.1836 87.1496 38.0621 83.3382 41.899 83.3382H48.2973C48.2973 83.3382 51.892 83.3968 51.892 79.8311V73.9353C51.892 73.9353 52.438 70.3672 45.3732 70.3672ZM41.8161 72.429C41.9685 72.4289 42.1195 72.4591 42.2604 72.5179C42.4012 72.5767 42.5292 72.663 42.637 72.7718C42.7448 72.8806 42.8303 73.0099 42.8886 73.1521C42.9468 73.2943 42.9768 73.4467 42.9766 73.6005C42.9768 73.7544 42.9468 73.9068 42.8886 74.049C42.8303 74.1912 42.7448 74.3204 42.637 74.4293C42.5292 74.5381 42.4012 74.6244 42.2604 74.6832C42.1195 74.742 41.9685 74.7722 41.8161 74.7721C41.6636 74.7722 41.5127 74.742 41.3718 74.6832C41.2309 74.6244 41.1029 74.5381 40.9951 74.4293C40.8874 74.3204 40.8019 74.1912 40.7436 74.049C40.6853 73.9068 40.6554 73.7544 40.6555 73.6005C40.6554 73.4467 40.6853 73.2943 40.7436 73.1521C40.8019 73.0099 40.8874 72.8806 40.9951 72.7718C41.1029 72.663 41.2309 72.5767 41.3718 72.5179C41.5127 72.4591 41.6636 72.4289 41.8161 72.429Z" fill="url(#paint1_linear)"/>
<path d="M45.5646 97.1094C52.3247 97.1094 51.9026 94.15 51.9026 94.15L51.8951 91.0841H45.444V90.1636H54.4573C54.4573 90.1636 58.7831 90.6589 58.7831 83.7731C58.7831 76.8875 55.0074 77.1317 55.0074 77.1317H52.7541V80.3268C52.7541 80.3268 52.8756 84.1383 49.0387 84.1383H42.6404C42.6404 84.1383 39.0457 84.0796 39.0457 87.6455V93.5414C39.0457 93.5414 38.4998 97.1094 45.5645 97.1094H45.5646ZM49.1217 95.0478C48.9693 95.0479 48.8183 95.0177 48.6774 94.9589C48.5366 94.9 48.4086 94.8137 48.3008 94.7049C48.193 94.5961 48.1075 94.4669 48.0492 94.3247C47.991 94.1825 47.961 94.0301 47.9612 93.8762C47.961 93.7223 47.9909 93.5699 48.0492 93.4277C48.1075 93.2855 48.193 93.1563 48.3008 93.0474C48.4085 92.9386 48.5365 92.8523 48.6774 92.7935C48.8183 92.7347 48.9693 92.7044 49.1217 92.7046C49.2742 92.7044 49.4251 92.7347 49.566 92.7935C49.7069 92.8523 49.8349 92.9386 49.9427 93.0474C50.0504 93.1562 50.1359 93.2854 50.1942 93.4276C50.2525 93.5698 50.2824 93.7222 50.2823 93.8761C50.2824 94.03 50.2525 94.1824 50.1942 94.3246C50.1359 94.4668 50.0504 94.596 49.9427 94.7048C49.8349 94.8136 49.7069 94.8999 49.566 94.9588C49.4251 95.0176 49.2742 95.0478 49.1217 95.0477V95.0478Z" fill="url(#paint2_linear)"/>
</g>
<g clip-path="url(#clip5)">
<path d="M2.5379 74.7524H24.1583V96.1969H2.5379V74.7524Z" fill="#0D0D0D"/>
<path d="M2.53791 74.7526H24.1583V96.1971H2.53791V74.7526ZM1.55518 97.1992H25.141V73.7505H1.55518V97.1992ZM17.456 83.3704C16.6796 83.3704 16.4143 83.7713 16.4143 84.1019C16.4143 84.4627 16.5911 84.7132 17.6329 85.2644C19.1758 86.026 19.6573 86.7575 19.6573 87.8297C19.6573 89.433 18.4584 90.2948 16.8368 90.2948C15.9818 90.2948 15.2448 90.1144 14.8222 89.8639C14.7534 89.8339 14.7436 89.7838 14.7436 89.7036V88.2305C14.7436 88.1303 14.7927 88.1002 14.8615 88.1504C15.4807 88.5612 16.1882 88.7416 16.8368 88.7416C17.6132 88.7416 17.9375 88.4109 17.9375 87.9599C17.9375 87.5992 17.7115 87.2785 16.7189 86.7575C15.3234 86.0761 14.7436 85.3846 14.7436 84.2322C14.7436 82.9395 15.7362 81.8673 17.456 81.8673C18.3011 81.8673 18.8908 81.9976 19.2151 82.1479C19.2937 82.198 19.3133 82.2782 19.3133 82.3483V83.7211C19.3133 83.8013 19.2642 83.8514 19.1659 83.8213C18.7335 83.5408 18.0947 83.3704 17.456 83.3704ZM9.00435 84.5629C9.23039 84.583 9.4073 84.583 9.80039 84.583C10.9502 84.583 12.0312 84.1721 12.0312 82.5788C12.0312 81.3062 11.2548 80.6648 9.94782 80.6648C9.55473 80.6648 9.18126 80.6849 9.00435 80.6949V84.5629ZM7.25511 79.2419C7.25511 79.1717 7.39271 79.1216 7.47128 79.1216C8.10027 79.0915 9.03387 79.0715 10.0068 79.0715C12.729 79.0715 13.7903 80.5947 13.7903 82.5387C13.7903 85.084 11.9821 86.1762 9.76108 86.1762C9.38765 86.1762 9.25991 86.1562 8.99453 86.1562V90.0042C8.99453 90.0844 8.96505 90.1244 8.87661 90.1244H7.37302C7.29441 90.1244 7.25507 90.0944 7.25507 90.0042V79.2419H7.25511Z" fill="white"/>
</g>
<g clip-path="url(#clip6)">
<path d="M75.7986 64.0303L67.2556 61.6293L65.3518 40.0123H86.271L84.3652 61.626L75.7986 64.0303Z" fill="white"/>
<path d="M82.7337 60.2497L84.3622 41.7798H75.8114V62.1925L82.7337 60.2497Z" fill="white"/>
<path d="M69.7162 49.7972L69.9509 52.4485H75.8114V49.7972H69.7162ZM69.2445 44.4311L69.4826 47.0823H75.8114V44.4311H69.2445ZM75.8114 56.6828L75.7999 56.6859L72.8833 55.8886L72.6968 53.7741H70.0679L70.4347 57.937L75.7993 59.4445L75.8114 59.4412V56.6828Z" fill="#0D0D0D"/>
<path d="M70.275 34.1378H73.4468V35.4806H71.6015V36.8234H73.447V38.1662H70.275V34.1378ZM74.0813 34.1378H77.2531V35.3054H75.4077V35.539H77.2531V38.2246H74.0813V36.9984H75.9268V36.7649H74.0812V34.1378H74.0813ZM77.8876 34.1378H81.0594V35.3054H79.214V35.539H81.0594V38.2246H77.8876V36.9984H79.733V36.7649H77.8876V34.1378H77.8876Z" fill="white"/>
<path d="M81.8899 49.7972L82.3627 44.4311H75.8025V47.0823H79.4927L79.2544 49.7972H75.8025V52.4485H79.0273L78.7232 55.8869L75.8024 56.685V59.4433L81.1712 57.937L81.2106 57.489L81.8261 50.5092L81.8899 49.7972Z" fill="#0D0D0D"/>
</g>
<path d="M75.0254 73.8316H78.6635V90.5971C76.8 90.9515 75.4281 91.0909 73.9438 91.0909C69.5003 91.0863 67.1873 89.0903 67.1873 85.257C67.1873 81.5636 69.6408 79.1665 73.4428 79.1665C74.0328 79.1665 74.4822 79.2132 75.0254 79.3531V73.8316ZM75.1529 82.3744C74.7268 82.2345 74.3756 82.1879 73.9261 82.1879C72.086 82.1879 71.0231 83.3164 71.0231 85.2941C71.0231 87.2197 72.0392 88.2829 73.9028 88.2829C74.3054 88.2829 74.6332 88.2601 75.1529 88.1902V82.3744Z" fill="white"/>
<path d="M84.6129 79.6167V88.0109C84.6129 90.9017 84.3975 92.2919 83.7654 93.4904C83.1754 94.6427 82.3982 95.3693 80.7922 96.1718L77.4163 94.5723C79.0223 93.8219 79.7995 93.1588 80.2959 92.1469C80.8155 91.1121 80.9794 89.9135 80.9794 86.7611V79.6167H84.6129V79.6167ZM80.6128 73.8316H84.2509V77.5484H80.6128V73.8316Z" fill="white"/>
<g clip-path="url(#clip7)">
<path d="M5.22058 61.6552L3.3681 39.8727L23.325 39.881L21.4881 61.6386L13.331 64.0996L5.22058 61.6552ZM19.9859 60.4664L21.5348 41.8098H13.3621L13.4244 62.3869L19.9859 60.4664ZM12.5993 44.5451H10.6146L10.5912 55.7108L6.73836 54.5884L6.74615 57.1408L12.5993 58.8285V44.5451Z" fill="white"/>
<path d="M13.3627 41.8008H21.5354L19.9865 60.4574L13.3627 62.3779V41.8008ZM19.5662 57.3313L20.1033 50.3559L16.1337 50.8298V47.1051L20.3679 47.0885L20.5391 44.5444L14.1489 44.5777L14.2345 53.8395L18.0951 53.1328L18.0406 55.1946L14.1489 56.3004L14.1878 58.8278L19.5662 57.3313Z" fill="white"/>
</g>
<path d="M11.3981 121.479C11.117 121.479 10.8404 121.369 10.6336 121.161L4.23573 114.727V120.392C4.23573 120.992 3.75179 121.479 3.15461 121.479C2.55782 121.479 2.07349 120.992 2.07349 120.392V112.103C2.07349 111.663 2.3373 111.267 2.74119 111.099C2.93868 111.016 3.15608 110.994 3.36581 111.036C3.57554 111.078 3.76815 111.182 3.9192 111.334L10.317 117.767V112.103C10.317 111.502 10.801 111.016 11.3981 111.016C11.9954 111.016 12.4793 111.503 12.4793 112.103V120.392C12.4791 120.68 12.3652 120.956 12.1624 121.16C11.9597 121.364 11.6848 121.479 11.3981 121.479V121.479ZM16.4045 111.026L16.1075 111.584L13.8099 115.782L13.5128 116.312L13.8099 116.842L16.1076 120.905L16.418 121.461H22.4319L22.729 120.85L24.4454 117.372L25.2156 115.796H23.4724L19.0805 115.809C18.5093 115.801 17.9838 116.322 17.9838 116.896C17.9838 117.47 18.5093 117.991 19.0805 117.983L21.7292 117.97L21.0806 119.287H17.675L15.9854 116.298L17.6884 113.2H21.3109L22.1555 114.943H24.3315L22.96 111.638L22.6624 111.026H16.4046H16.4045ZM27.357 111.013C26.7905 111.02 26.282 111.544 26.2893 112.113V114.946H28.4516V112.113C28.4584 111.535 27.9317 111.006 27.357 111.013ZM30.8227 121.5C30.536 121.5 30.2612 121.385 30.0585 121.181C29.8559 120.977 29.742 120.701 29.7419 120.413V112.124C29.7419 111.523 30.2259 111.037 30.8231 111.037C31.4203 111.037 31.9042 111.523 31.9042 112.124V117.788L38.3022 111.355C38.4533 111.203 38.6459 111.099 38.8556 111.057C39.0653 111.015 39.2827 111.037 39.4802 111.119C39.6777 111.202 39.8465 111.341 39.9653 111.52C40.0841 111.699 40.1474 111.909 40.1474 112.124V120.413C40.1474 121.013 39.6635 121.5 39.0663 121.5C38.469 121.5 37.9852 121.013 37.9852 120.413V114.748L31.5872 121.181C31.4868 121.282 31.3676 121.363 31.2364 121.417C31.1052 121.472 30.9646 121.5 30.8226 121.5H30.8227ZM48.1557 116.26L51.5189 112.891C51.9418 112.467 51.9431 111.779 51.5215 111.353C51.1003 110.928 50.4161 110.927 49.9928 111.351L46.6245 114.726L43.2562 111.351C42.8328 110.927 42.1487 110.928 41.7276 111.353C41.3059 111.779 41.3071 112.467 41.7297 112.891L45.0928 116.26L41.7396 119.62C41.3163 120.044 41.3154 120.731 41.737 121.157C41.8372 121.258 41.9566 121.339 42.088 121.394C42.2195 121.449 42.3605 121.477 42.5029 121.477C42.7788 121.477 43.0547 121.371 43.2657 121.159L46.6245 117.794L49.9829 121.159C50.0831 121.26 50.2021 121.34 50.333 121.394C50.464 121.449 50.6044 121.477 50.7461 121.477C51.0237 121.477 51.3006 121.37 51.512 121.157C51.9332 120.731 51.9323 120.044 51.5093 119.62L48.1557 116.26ZM27.357 121.469C26.7905 121.462 26.282 120.938 26.2893 120.368V115.818H28.4516V120.368C28.4584 120.946 27.9317 121.476 27.357 121.469Z" fill="white"/>
<g clip-path="url(#clip8)">
<path d="M87.6043 112.837C87.6043 114.303 87.2953 115.697 86.7392 116.956C86.6488 117.162 86.551 117.364 86.4475 117.563C84.7555 120.796 81.3818 123 77.4961 123C73.4021 123 69.8766 120.553 68.2874 117.034C68.0101 116.42 67.7919 115.774 67.6401 115.102C67.475 114.374 67.3879 113.615 67.3879 112.837C67.3879 107.224 71.9135 102.674 77.4961 102.674C82.0374 102.674 85.8789 105.684 87.1546 109.829C87.1951 109.961 87.233 110.095 87.2685 110.229V110.23C87.3345 110.481 87.3915 110.735 87.4385 110.994C87.4604 111.114 87.4801 111.235 87.4975 111.356C87.5094 111.438 87.5206 111.519 87.53 111.601C87.5482 111.748 87.5626 111.896 87.5742 112.045C87.594 112.306 87.6043 112.571 87.6043 112.837Z" fill="white"/>
<path d="M81.9169 105.755C81.9169 105.755 82.2098 106.058 82.26 106.285C82.26 106.285 82.4693 106.125 82.327 105.873C82.1847 105.62 81.9169 105.755 81.9169 105.755Z" fill="#0D0D0D"/>
<path d="M87.2685 110.229C87.0053 110.096 86.7659 110.017 86.5786 109.971C86.3253 109.908 86.1202 109.72 86.0315 109.473C85.9177 109.157 85.7056 108.644 85.3153 107.867C84.5451 106.336 83.6914 105.865 83.1307 105.469C82.7627 105.209 82.2792 105.156 81.9904 105.151C81.8447 105.148 81.7045 105.094 81.5926 105C81.2985 104.751 80.72 104.459 80.536 104.568C80.3099 104.703 80.536 105.015 80.8537 105.41C81.1718 105.806 81.239 106.243 81.4647 106.832C81.5691 107.104 81.695 107.268 81.7998 107.366C81.9095 107.469 81.9454 107.629 81.8872 107.767C81.6752 108.271 81.6042 108.91 81.7243 109.5C81.8666 110.199 82.193 110.19 82.193 110.19C82.1596 109.256 82.6451 108.852 82.6451 108.852C83.0887 110.215 84.1016 111.234 84.1016 111.234C83.2813 110.939 82.6703 109.593 82.6703 109.593C82.6703 109.593 82.6035 109.66 82.5449 110.106C82.4863 110.552 81.9504 110.821 81.5572 109.845C81.1636 108.869 81.6743 107.64 81.6743 107.64C81.4482 107.522 80.9795 106.437 80.9795 106.268C80.9795 106.1 80.7951 105.73 80.5695 105.502C80.3434 105.276 79.8998 104.619 80.4189 104.316C80.9375 104.013 81.9673 104.829 81.9673 104.829C83.5912 104.77 85.265 106.756 85.5328 107.463C85.8005 108.17 86.5539 109.584 86.5539 109.584C86.7676 109.649 86.9685 109.734 87.1546 109.829C87.195 109.961 87.233 110.095 87.2685 110.229Z" fill="#0D0D0D"/>
<path d="M87.5741 112.045C87.5659 112.041 87.558 112.037 87.5502 112.033C87.0312 111.781 86.822 111.251 86.822 111.251C86.9565 111.115 87.195 111.038 87.4384 110.994C87.4603 111.114 87.4801 111.235 87.4974 111.356C87.4066 111.374 87.3493 111.385 87.3493 111.385C87.3493 111.436 87.4207 111.513 87.53 111.601C87.5482 111.748 87.5626 111.896 87.5741 112.045Z" fill="#0D0D0D"/>
<path d="M72.6542 117.548H71.8633C71.8633 117.548 71.8633 115.73 71.5996 113.572L70.3565 117.548H69.7162L68.4546 113.591C68.4546 113.591 68.3077 114.753 68.2875 117.034C68.0102 116.42 67.792 115.774 67.6401 115.102C67.6983 114.258 67.78 113.338 67.8898 112.587H68.9191L70.0929 116.26L71.336 112.587H72.2775C72.2775 112.587 72.6542 115.825 72.6542 117.548Z" fill="#3D3D3D"/>
<path d="M73.0907 113.927L73.9068 113.914C73.9068 113.914 74.8233 116.679 74.7354 117.02C74.7354 117.02 75.3255 115.366 75.4762 113.914H76.2797C76.2797 113.914 75.8528 116.843 74.5471 118.383C74.0585 118.959 73.5102 118.966 73.0151 118.75V118.307C73.0151 118.307 73.6934 118.547 74.0449 118.042C74.328 117.636 74.0577 116.935 73.8105 116.189C73.7505 116.009 73.0907 113.927 73.0907 113.927Z" fill="#3D3D3D"/>
<path d="M76.7817 117.184L76.9952 116.754C76.9952 116.754 78.4642 117.411 78.8408 116.754C79.2174 116.098 78.8533 115.745 78.1126 115.353C77.3718 114.962 76.5934 114.47 76.9324 113.396C77.2714 112.323 79.0668 112.399 79.5815 112.917L79.4058 113.333C79.4058 113.333 78.075 112.765 77.7109 113.51C77.3468 114.255 78.3135 114.608 78.5395 114.709C78.7655 114.81 80.0211 115.328 79.883 116.249C79.7449 117.171 79.1799 117.739 77.8867 117.625C77.422 117.512 77.1584 117.436 76.7817 117.184Z" fill="#0D0D0D"/>
<path d="M83.3972 117.243C83.9521 116.795 84.1901 115.997 84.1901 115.088C84.1901 113.686 83.7887 112.549 82.2027 112.549C80.8371 112.549 80.2153 113.686 80.2153 115.088C80.2153 116.491 80.67 117.628 82.2027 117.628C82.4247 117.628 82.6261 117.6 82.8076 117.548L83.9884 118.244L84.2772 117.676L83.3972 117.243ZM82.2027 117.019C81.314 117.019 81.0504 116.155 81.0504 115.088C81.0504 114.021 81.3016 113.157 82.2027 113.157C83.1219 113.157 83.3547 114.021 83.3547 115.088C83.3546 116.155 83.1219 117.019 82.2027 117.019Z" fill="#0D0D0D"/>
<path d="M86.7391 116.956C86.6488 117.162 86.551 117.364 86.4475 117.563H84.8925V112.614H85.671V116.956H86.7391V116.956Z" fill="#0D0D0D"/>
</g>
<defs>
<radialGradient id="paint0_radial" cx="0" cy="0" r="1" gradientUnits="userSpaceOnUse" gradientTransform="translate(71.004 11.7393) scale(16.7926 16.0414)">
<stop stop-color="#0D0D0D"/>
<stop offset="1" stop-color="#0D0D0D"/>
</radialGradient>
<linearGradient id="paint1_linear" x1="34.7136" y1="72.7724" x2="48.0334" y2="85.8355" gradientUnits="userSpaceOnUse">
<stop stop-color="white"/>
<stop offset="1" stop-color="white"/>
</linearGradient>
<linearGradient id="paint2_linear" x1="42.8131" y1="81.242" x2="57.1108" y2="94.6312" gradientUnits="userSpaceOnUse">
<stop stop-color="white"/>
<stop offset="1" stop-color="white"/>
</linearGradient>
<clipPath id="clip0">
<rect width="26.9552" height="24.7564" fill="white" transform="translate(0 5.47247)"/>
</clipPath>
<clipPath id="clip1">
<rect width="19.698" height="28.4047" fill="white" transform="translate(35.5082)"/>
</clipPath>
<clipPath id="clip2">
<rect width="25.6593" height="25.7987" fill="white" transform="translate(32.3981 38.3071)"/>
</clipPath>
<clipPath id="clip3">
<rect width="24.1041" height="23.1928" fill="white" transform="translate(62.7225 5.99365)"/>
</clipPath>
<clipPath id="clip4">
<rect width="26.696" height="26.8411" fill="white" transform="translate(32.1389 70.3602)"/>
</clipPath>
<clipPath id="clip5">
<rect width="23.5858" height="23.4534" fill="white" transform="translate(1.55518 73.7479)"/>
</clipPath>
<clipPath id="clip6">
<rect width="20.9939" height="29.9682" fill="white" transform="translate(65.3145 34.1378)"/>
</clipPath>
<clipPath id="clip7">
<rect width="19.9572" height="24.2352" fill="white" transform="translate(3.36945 39.8707)"/>
</clipPath>
<clipPath id="clip8">
<rect width="20.2164" height="20.3263" fill="white" transform="translate(67.3879 102.674)"/>
</clipPath>
</defs>
</svg>
