<svg width="130" height="89" viewBox="0 0 130 89" fill="none" xmlns="http://www.w3.org/2000/svg">
<path d="M130 81.136C130 85.0865 127.071 87.9752 123.082 87.9327C119.177 87.9327 116.164 84.9166 116.206 81.051C116.249 77.1853 119.305 74.1693 123.167 74.1693C127.071 74.2118 130 77.2278 130 81.136ZM123.209 86.8282C126.308 86.7857 128.854 84.237 128.854 81.136C128.854 77.9075 126.265 75.4012 122.955 75.4437C119.814 75.5287 117.437 77.9925 117.48 81.2209C117.564 84.4069 120.026 86.8707 123.209 86.8282Z" fill="#0D0D0D"/>
<path d="M104.832 63.889C100.63 63.889 96.5129 63.889 92.1838 63.889C92.1838 52.0373 92.1838 40.2704 92.1838 27.8664C86.2419 32.5817 80.7244 36.957 75.0797 41.4174C73.8064 40.3554 72.6605 39.4633 71.557 38.4863C68.1616 35.4703 64.7662 32.4542 61.3284 29.4382C59.8005 28.1213 58.6122 26.592 57.6784 24.8079C53.986 17.7138 50.1662 10.6622 46.4313 3.56817C46.0069 2.80354 45.6673 1.99643 45.2429 1.10436C46.3464 0.59461 46.8133 1.35924 47.3226 1.78404C54.6226 7.73117 61.9226 13.7208 69.1802 19.6679C71.3448 21.452 73.5093 23.1937 75.7163 25.0628C85.3506 16.9492 94.8576 8.92059 104.28 0.934448C104.577 1.06189 104.619 1.06188 104.704 1.10436C104.789 1.14684 104.874 1.18932 104.874 1.27428C104.916 21.622 104.916 41.9696 104.959 62.3173C105.001 62.8271 104.916 63.2943 104.832 63.889Z" fill="#0D0D0D"/>
<path d="M39.9378 0C51.0576 21.3247 61.7105 42.437 72.4484 63.4219C72.1937 63.7192 72.1088 63.9316 71.9815 63.9316C67.8646 64.0166 63.7053 64.0591 59.5884 64.1865C58.4849 64.229 57.9756 63.6767 57.5088 62.7847C56.0233 59.9385 54.4954 57.0924 52.9251 54.1613C47.0681 54.1613 41.2111 54.1613 34.9721 54.1613C35.3116 53.2693 35.5238 52.5896 35.8209 51.9524C37.2639 49.1912 38.8767 46.4726 40.1924 43.6264C41.0413 41.7149 42.3994 41.1201 44.2669 41.1626C44.8186 41.1626 45.4128 41.1626 46.4314 41.1626C45.9646 40.2281 45.6675 39.5059 45.3279 38.8262C41.3808 31.2649 37.4762 23.7036 33.4442 16.2272C32.6378 14.6979 32.5104 13.466 33.4017 11.8943C35.2267 8.66581 36.8395 5.30994 38.5796 1.99654C38.9616 1.44431 39.3436 0.934549 39.9378 0Z" fill="#0D0D0D"/>
<path d="M28.436 22.6843C28.9453 23.3215 29.3697 23.7038 29.6243 24.2136C31.4494 27.6119 33.2319 31.0953 35.0994 34.4936C35.6936 35.5556 35.6087 36.4477 35.0569 37.5097C30.7278 46.0905 26.4836 54.6714 22.197 63.2097C22.0697 63.5071 21.8575 63.762 21.6452 64.0169C17.104 64.0169 12.5627 64.0169 7.5545 64.0169C14.5999 50.1261 21.4755 36.5326 28.436 22.6843Z" fill="#0D0D0D"/>
<path d="M72.7453 87.8476C72.7453 83.3023 72.7453 78.9694 72.7453 74.4666C74.9099 74.4666 76.9895 74.2542 78.9843 74.5091C81.9977 74.8914 84.1198 77.9075 84.0774 81.1784C84.0349 84.5767 81.743 87.2954 78.5174 87.7202C77.711 87.8476 76.8622 87.7627 76.0558 87.8052C74.9947 87.8901 73.9337 87.8476 72.7453 87.8476ZM74.0186 86.5308C75.6738 86.5308 77.0744 86.7007 78.4326 86.4883C81.3186 86.0635 82.889 83.9395 82.8041 80.881C82.7192 77.9499 80.8518 75.826 78.0081 75.5711C76.7349 75.4437 75.4192 75.5711 74.0186 75.5711C74.0186 79.3518 74.0186 82.8351 74.0186 86.5308Z" fill="#0D0D0D"/>
<path d="M7.55469 77.7376C7.25759 77.2278 7.04538 76.6756 6.66341 76.2933C5.85701 75.4862 4.75351 75.3163 3.65002 75.4862C2.58897 75.6561 1.78257 76.2083 1.52792 77.3128C1.27326 78.4597 1.86746 79.2668 2.84362 79.6916C3.90467 80.1589 5.0506 80.4138 6.06921 80.9235C6.91806 81.3483 7.85178 81.8581 8.48841 82.5802C9.50702 83.8121 9.04016 85.9786 7.7669 87.0406C5.72968 88.7398 1.69768 88.145 0.254655 85.9361C2.58034e-06 85.5538 0.0848841 85.0016 0 84.5343C0.169768 84.4493 0.339542 84.4069 0.50931 84.3219C0.848846 84.7467 1.14594 85.1715 1.52792 85.5538C2.84362 86.8282 4.41398 87.0831 6.11166 86.4884C7.04538 86.1485 7.68201 85.5538 7.80934 84.5343C7.89422 83.5148 7.34248 82.7926 6.49363 82.3678C5.77212 81.9855 4.96572 81.7307 4.20177 81.4333C3.35293 81.0935 2.46164 80.8386 1.69768 80.3713C-0.169768 79.1394 -0.21221 76.5057 1.48547 75.0614C3.52269 73.4047 7.08782 74.1693 8.31864 76.5482C8.40353 76.7181 8.2762 76.9729 8.23376 77.2278C8.02155 77.3977 7.80934 77.5677 7.55469 77.7376Z" fill="#0D0D0D"/>
<path d="M47.8747 74.5091C47.9595 75.1039 48.0869 75.6986 48.0869 76.2933C48.1293 78.5022 48.0444 80.7536 48.1293 82.9626C48.2142 85.4689 49.6148 86.8282 51.9915 86.7857C54.2834 86.7432 55.5142 85.4264 55.5566 82.9626C55.5991 80.1589 55.5566 77.3553 55.5566 74.0419C56.2357 74.6366 56.7875 74.8915 56.7875 75.1463C56.7875 78.2049 56.9148 81.2634 56.6177 84.2794C56.363 86.7857 54.4107 87.9752 51.5671 87.8902C48.9781 87.8052 47.1956 86.4034 47.0683 83.9396C46.8985 80.966 47.0258 77.9925 47.0258 75.0189C47.0258 74.8065 47.238 74.6366 47.3654 74.4242C47.5351 74.5092 47.7049 74.5091 47.8747 74.5091Z" fill="#0D0D0D"/>
<path d="M26.7385 87.72C26.7385 83.7694 26.7385 79.8613 26.7385 75.7832C25.2954 75.6133 24.0222 75.4859 22.6216 75.3584C23.6402 74.4664 23.6402 74.4239 27.2478 74.4664C28.8606 74.4664 30.4309 74.5089 32.4681 74.5513C31.0675 76.208 29.4547 75.0186 28.2664 75.9107C27.2478 79.7763 28.9454 83.9393 27.4175 87.8049C27.4175 87.8049 27.2478 87.7624 26.7385 87.72Z" fill="#0D0D0D"/>
<path d="M99.3568 87.7628C99.3568 83.3874 99.3568 78.9695 99.3568 74.1268C99.8661 74.6791 100.333 74.9339 100.333 75.1888C100.375 79.1394 100.375 83.1325 100.375 87.0831C100.375 87.338 100.121 87.5928 99.9934 87.8477C99.7387 87.8052 99.569 87.7628 99.3568 87.7628Z" fill="#0D0D0D"/>
</svg>
