<svg width="338" height="472" viewBox="0 0 338 472" fill="none" xmlns="http://www.w3.org/2000/svg">
<path d="M0.306305 68.3968C0.306305 76.3334 7.92846 83.7422 19.9448 87.9185C17.5452 100.201 19.515 110.101 26.0936 113.959C32.8553 117.924 42.9291 115.179 52.4906 106.681C61.8108 114.836 71.2301 118.045 77.803 114.177C84.5586 110.201 86.613 99.6291 84.1471 86.9627C96.6632 82.7554 103.664 76.4379 103.664 68.3968C103.664 60.6444 96.0282 53.9378 84.1735 49.7883C86.8283 36.5986 84.579 26.9388 77.7278 22.9219C71.1229 19.0492 61.5939 22.4246 52.1368 30.7929C42.2978 21.9108 32.863 19.1992 26.0192 23.2272C19.4204 27.111 17.5375 37.1913 19.9448 49.7012C8.33388 53.8172 0.306305 60.6758 0.306305 68.3968Z" fill="white"/>
<path d="M81.663 53.9088C80.686 53.5681 79.7007 53.2524 78.7081 52.9621C78.8727 52.282 79.0249 51.5989 79.1647 50.913C81.4014 39.8732 79.9389 30.9796 74.9447 28.0519C70.1565 25.244 62.3251 28.1717 54.4157 35.1699C53.6364 35.861 52.8743 36.5721 52.1303 37.3024C51.632 36.8168 51.1249 36.3406 50.6093 35.8741C42.3201 28.3906 34.0115 25.2374 29.0225 28.1737C24.2387 30.9895 22.8218 39.3507 24.8355 49.8131C25.0358 50.8492 25.262 51.8799 25.5139 52.9043C24.3382 53.2438 23.2028 53.6057 22.1165 53.9906C12.3986 57.4354 6.1922 62.8347 6.1922 68.4347C6.1922 74.219 12.8544 80.0206 22.9769 83.5381C23.7977 83.822 24.6253 84.085 25.459 84.327C25.1882 85.4306 24.9477 86.5417 24.738 87.659C22.8181 97.9397 24.3175 106.103 29.0887 108.901C34.0167 111.79 42.2876 108.82 50.3416 101.662C50.9782 101.097 51.6172 100.496 52.257 99.8673C53.0629 100.658 53.8903 101.426 54.7383 102.169C62.5396 108.995 70.2442 111.751 75.0113 108.945C79.9349 106.047 81.5346 97.278 79.4572 86.6086C79.2987 85.7937 79.1139 84.9614 78.9067 84.1139C79.4876 83.9396 80.0576 83.7595 80.6137 83.572C91.1368 80.0272 97.983 74.2962 97.983 68.4347C97.983 62.8145 91.5767 57.3788 81.663 53.9088Z" fill="#0D0D0D"/>
<path d="M79.3804 79.7877C78.8787 79.9566 78.3636 80.1198 77.8387 80.278C76.6769 76.5387 75.1089 72.5623 73.1906 68.4546C75.0215 64.4439 76.5286 60.5188 77.658 56.8035C78.5968 57.0802 79.5084 57.3714 80.3866 57.6791C88.881 60.6518 94.0621 65.0478 94.0621 68.4348C94.0621 72.0427 88.4662 76.7266 79.3808 79.7877H79.3804ZM75.6105 87.3831C76.529 92.1009 76.6603 96.3664 76.0517 99.7009C75.5049 102.697 74.4057 104.695 73.0464 105.495C70.1536 107.197 63.9671 104.984 57.2959 99.147C56.531 98.4779 55.7604 97.7633 54.9877 97.0075C57.5742 94.131 60.1591 90.787 62.6818 87.0738C67.1195 86.6735 71.3118 86.0189 75.1137 85.1254C75.3006 85.8937 75.4671 86.6467 75.6105 87.3831ZM37.4856 105.201C34.6594 106.215 32.4085 106.244 31.048 105.447C28.1524 103.749 26.9491 97.1942 28.5907 88.4025C28.7859 87.3635 29.0094 86.3303 29.261 85.3039C33.0207 86.1494 37.1825 86.7578 41.6308 87.1246C44.1701 90.7581 46.8298 94.098 49.5101 97.0228C48.9404 97.583 48.3573 98.129 47.7612 98.6601C44.1998 101.826 40.631 104.071 37.486 105.201H37.4856ZM24.2452 79.7654C19.7693 78.2099 16.073 76.1884 13.5394 73.9828C11.2628 72.0002 10.1132 70.032 10.1132 68.4348C10.1132 65.0367 15.0964 60.7018 23.4076 57.7555C24.4507 57.3873 25.5043 57.0503 26.5668 56.7448C27.7157 60.5436 29.2224 64.5154 31.0407 68.5318C29.1988 72.6082 27.6706 76.6432 26.5112 80.4866C25.7502 80.2651 24.9946 80.0246 24.2452 79.7654ZM28.6837 49.0473C26.9585 40.083 28.104 33.3211 30.9871 31.6243C34.0582 29.8168 40.8484 32.3942 48.0054 38.8555C48.4628 39.2685 48.9223 39.701 49.3825 40.1483C46.716 43.0598 44.0808 46.3745 41.5633 49.987C37.2463 50.3938 33.1137 51.0473 29.3146 51.9225C29.0806 50.9695 28.8702 50.0107 28.6837 49.0469V49.0473ZM68.278 58.988C67.3807 57.412 66.4501 55.8559 65.4868 54.3207C68.4158 54.6965 71.2216 55.1963 73.8564 55.808C73.0655 58.3858 72.0796 61.0813 70.9186 63.8446C70.0703 62.208 69.1899 60.5889 68.278 58.988ZM52.1315 42.9975C53.94 44.9896 55.7514 47.2142 57.5332 49.6276C53.9189 49.454 50.2986 49.4532 46.6843 49.6252C48.4677 47.2341 50.2945 45.0127 52.1315 42.9975ZM35.8814 59.0153C34.9809 60.6034 34.117 62.2126 33.2904 63.8417C32.1485 61.088 31.1715 58.3805 30.3737 55.7659C32.9926 55.1699 35.7855 54.6829 38.6953 54.3132C37.7213 55.858 36.783 57.4258 35.8814 59.0153ZM38.779 82.8409C35.7729 82.4997 32.9378 82.0375 30.3196 81.458C31.1301 78.7972 32.1286 76.0315 33.2949 73.2186C34.125 74.8489 34.9927 76.4591 35.8972 78.0479C36.8202 79.6687 37.7811 81.2668 38.779 82.8409ZM52.24 94.1537C50.3814 92.1146 48.5278 89.8593 46.7172 87.4335C48.4746 87.5037 50.2665 87.5393 52.0876 87.5393C53.9587 87.5393 55.8083 87.4967 57.6286 87.4141C55.8412 89.8841 54.0363 92.1426 52.24 94.1537ZM70.9559 73.0753C72.1828 75.9187 73.217 78.6696 74.0384 81.2854C71.3768 81.9029 68.5035 82.4002 65.4758 82.7694C66.4461 81.2055 67.3856 79.6222 68.2939 78.0203C69.2172 76.3922 70.1048 74.7435 70.9559 73.0753ZM64.897 76.0286C63.5065 78.4845 62.0379 80.8938 60.4934 83.2527C57.77 83.4506 54.9556 83.5526 52.0876 83.5526C49.2314 83.5526 46.4528 83.4621 43.7769 83.2857C42.1924 80.9324 40.696 78.5189 39.2909 76.0505C37.8924 73.5951 36.5861 71.0867 35.3748 68.5306C36.583 65.9737 37.8853 63.4639 39.2791 61.0066V61.0074C40.6724 58.5496 42.1571 56.1464 43.7298 53.8031C46.4597 53.5933 49.2586 53.4834 52.088 53.4834C54.93 53.4834 57.7326 53.5941 60.4617 53.8056C62.0185 56.1453 63.4937 58.5401 64.8844 60.9855C66.2829 63.4374 67.6027 65.9349 68.8415 68.474C67.6154 71.039 66.2999 73.5588 64.8974 76.0286H64.897ZM72.9863 31.5058C76.0598 33.3083 77.2554 40.5766 75.3242 50.1084C75.1976 50.7294 75.06 51.3479 74.9114 51.9638C71.1034 51.0704 66.9679 50.4054 62.6383 49.9924C60.116 46.3406 57.5027 43.0202 54.8793 40.1462C55.5667 39.4724 56.2705 38.816 56.99 38.1777C63.7668 32.1811 70.1004 29.8135 72.9863 31.5058Z" fill="white"/>
<path d="M52.0876 60.1007C56.6147 60.1007 60.2842 63.8321 60.2842 68.4347C60.2842 73.0376 56.6147 76.7691 52.0876 76.7691C47.561 76.7691 43.8911 73.0376 43.8911 68.4347C43.8911 63.8321 47.561 60.1007 52.0876 60.1007Z" fill="#0D0D0D"/>
<path d="M212.862 21.3671L205.963 99.9799L174.951 108.725L144.024 99.992L137.132 21.3671H212.862Z" fill="white"/>
<path d="M174.997 102.04L200.056 94.9741L205.951 27.7957H174.997V102.04Z" fill="#0D0D0D"/>
<path d="M161.585 47.082H174.997V37.439H151.224L151.451 40.026L153.781 66.5996H174.997V56.9566H162.452L161.585 47.082ZM163.722 71.4213H154.205L155.533 86.5623L174.953 92.0456L174.997 92.0335V82.0006L174.955 82.0118L164.397 79.112L163.722 71.4213Z" fill="#0D0D0D"/>
<path d="M144.178 0H148.996V4.84159H153.403V0H158.221V14.6616H153.403V9.75203H148.996V14.6616H144.178V0H144.178ZM164.557 4.86212H160.316V0H173.619V4.86212H169.375V14.6616H164.557V4.86212H164.557H164.557ZM175.73 0H180.754L183.844 5.15168L186.931 0H191.957V14.6616H187.159V7.39449L183.844 12.6075H183.761L180.444 7.39449V14.6616H175.73V0ZM194.354 0H199.174V9.81544H205.949V14.6616H194.354V0H194.354Z" fill="white"/>
<path d="M174.964 66.5996H186.638L185.538 79.106L174.964 82.0088V92.041L194.4 86.5623L194.542 84.9331L196.77 59.546L197.001 56.9566H174.964V66.5996ZM174.964 47.0584V47.082H197.864L198.054 44.9147L198.486 40.026L198.713 37.439H174.964V47.0587V47.0584Z" fill="white"/>
<path d="M218.079 176.268C218.079 174.63 217.73 173.153 217.005 171.918C216.307 170.683 215.26 169.662 213.864 168.857C202.264 162.171 190.638 155.485 179.038 148.799C175.896 147 172.889 147.054 169.774 148.88C165.156 151.592 142.01 164.856 135.136 168.857C132.29 170.495 130.921 173.019 130.921 176.295V216.679C130.921 218.29 131.27 219.713 131.941 220.948C132.639 222.21 133.713 223.284 135.136 224.117C142.037 228.117 165.156 241.355 169.774 244.094C172.889 245.919 175.923 246 179.038 244.174C190.638 237.462 202.264 230.803 213.864 224.117C215.314 223.284 216.361 222.237 217.059 220.948C217.73 219.713 218.079 218.29 218.079 216.679V176.268Z" fill="white"/>
<path d="M174.607 196.326L131.887 220.921C132.585 222.183 133.659 223.257 135.082 224.09C141.983 228.091 165.102 241.328 169.72 244.067C172.835 245.893 175.869 245.974 178.984 244.148C190.584 237.435 202.21 230.776 213.81 224.09C215.26 223.257 216.307 222.21 217.005 220.921L174.607 196.326Z" fill="white"/>
<path d="M161.96 203.602C164.458 207.952 169.13 210.879 174.473 210.879C179.87 210.879 184.569 207.925 187.039 203.522L174.607 196.326L161.96 203.602Z" fill="white"/>
<path d="M218.08 176.268C218.08 174.63 217.73 173.153 217.005 171.918L174.607 196.326L217.059 220.921C217.73 219.686 218.08 218.263 218.08 216.652V176.268Z" fill="white"/>
<path d="M187.039 203.522C184.569 207.898 179.87 210.879 174.473 210.879C169.103 210.879 164.431 207.952 161.961 203.602C160.752 201.481 160.054 199.065 160.054 196.46C160.054 188.485 166.498 182.041 174.473 182.041C179.79 182.041 184.435 184.941 186.932 189.237L199.525 181.987C194.504 173.341 185.16 167.514 174.446 167.514C158.443 167.514 145.501 180.483 145.501 196.46C145.501 201.696 146.897 206.637 149.34 210.879C154.335 219.552 163.733 225.405 174.473 225.405C185.241 225.405 194.638 219.525 199.633 210.799L187.039 203.522ZM202.962 189.613H200.089V203.495H202.962V189.613ZM209.326 189.613H206.453V203.495H209.326V189.613Z" fill="#0D0D0D"/>
<path d="M211.662 191.949H197.78V194.822H211.662V191.949ZM211.662 198.286H197.78V201.159H211.662V198.286Z" fill="#0D0D0D"/>
<g clip-path="url(#clip0)">
<path d="M245.875 26.8116H331.125V108.188H245.875V26.8116Z" fill="url(#paint0_radial)"/>
<path d="M245.875 26.8119H331.125V108.189H245.875V26.8119ZM242 111.991H335V23.0093H242V111.991ZM302.915 54.7234C302.915 54.4192 303.031 54.267 303.38 54.267H309.464C309.774 54.267 309.929 54.381 309.929 54.7234V84.7263C309.929 85.0304 309.851 85.1826 309.464 85.1826H303.458C303.07 85.1826 302.954 84.9925 302.954 84.6883V54.7234H302.915ZM302.489 46.0913C302.489 43.6576 304.233 42.2127 306.441 42.2127C308.805 42.2127 310.394 43.7717 310.394 46.0913C310.394 48.601 308.728 49.9699 306.364 49.9699C304.116 49.9701 302.489 48.601 302.489 46.0913ZM285.051 67.2341C283.966 63.0131 281.409 53.8107 280.44 49.3616H280.363C279.549 53.8107 277.495 61.3399 275.868 67.2341H285.051ZM274.279 73.3945L271.218 84.8024C271.14 85.1064 271.024 85.1825 270.636 85.1825H264.94C264.553 85.1825 264.475 85.0684 264.553 84.6121L275.558 46.8137C275.751 46.1293 275.868 45.5208 275.945 43.6576C275.945 43.3915 276.061 43.2774 276.255 43.2774H284.392C284.664 43.2774 284.78 43.3535 284.858 43.6576L297.18 84.6882C297.258 84.9922 297.18 85.1825 296.87 85.1825H290.437C290.128 85.1825 289.934 85.1064 289.856 84.8404L286.679 73.3945H274.279Z" fill="white"/>
</g>
<path d="M175.059 270.029C148.977 270.029 150.605 281.385 150.605 281.385L150.634 293.151H175.524V296.683H140.748C140.748 296.683 124.058 294.783 124.058 321.205C124.058 347.628 138.626 346.691 138.626 346.691H147.32V334.43C147.32 334.43 146.851 319.804 161.655 319.804H186.341C186.341 319.804 200.21 320.029 200.21 306.346V283.721C200.21 283.721 202.317 270.029 175.059 270.029ZM161.335 277.941C161.923 277.941 162.505 278.056 163.049 278.282C163.592 278.508 164.086 278.839 164.502 279.257C164.918 279.674 165.248 280.17 165.473 280.716C165.698 281.261 165.813 281.846 165.812 282.437C165.813 283.027 165.698 283.612 165.473 284.158C165.248 284.703 164.918 285.199 164.502 285.617C164.086 286.034 163.592 286.365 163.049 286.591C162.505 286.817 161.923 286.933 161.335 286.932C160.747 286.933 160.164 286.817 159.621 286.591C159.077 286.365 158.583 286.034 158.167 285.617C157.752 285.199 157.422 284.703 157.197 284.158C156.972 283.612 156.857 283.027 156.857 282.437C156.857 281.846 156.972 281.261 157.197 280.716C157.422 280.17 157.752 279.674 158.167 279.257C158.583 278.839 159.077 278.508 159.621 278.282C160.164 278.056 160.747 277.941 161.335 277.941Z" fill="url(#paint1_linear)"/>
<path d="M175.8 372.647C201.882 372.647 200.253 361.291 200.253 361.291L200.224 349.526H175.334V345.993H210.11C210.11 345.993 226.8 347.894 226.8 321.471C226.8 295.048 212.233 295.985 212.233 295.985H203.539V308.246C203.539 308.246 204.007 322.872 189.204 322.872H164.517C164.517 322.872 150.648 322.647 150.648 336.33V358.955C150.648 358.955 148.542 372.647 175.799 372.647H175.8ZM189.524 364.736C188.936 364.736 188.353 364.62 187.81 364.395C187.266 364.169 186.772 363.838 186.357 363.42C185.941 363.003 185.611 362.507 185.386 361.961C185.161 361.415 185.046 360.831 185.046 360.24C185.046 359.65 185.161 359.065 185.386 358.519C185.611 357.973 185.941 357.477 186.356 357.06C186.772 356.642 187.266 356.311 187.81 356.085C188.353 355.859 188.936 355.744 189.524 355.744C190.112 355.744 190.695 355.859 191.238 356.085C191.782 356.311 192.275 356.642 192.691 357.06C193.107 357.477 193.437 357.973 193.662 358.519C193.887 359.064 194.002 359.649 194.002 360.24C194.002 360.83 193.887 361.415 193.662 361.961C193.437 362.506 193.107 363.002 192.691 363.42C192.275 363.837 191.782 364.168 191.238 364.394C190.695 364.62 190.112 364.736 189.524 364.735V364.736Z" fill="url(#paint2_linear)"/>
<g clip-path="url(#clip1)">
<path d="M9.79163 286.854H93.2085V369.146H9.79163V286.854Z" fill="#0D0D0D"/>
<path d="M9.79162 286.854H93.2085V369.145H9.79162V286.854ZM6 372.991H97.0002V283.009H6V372.991ZM67.3493 319.924C64.3538 319.924 63.3302 321.462 63.3302 322.731C63.3302 324.116 64.0126 325.077 68.0319 327.192C73.9847 330.115 75.8427 332.922 75.8427 337.036C75.8427 343.189 71.2169 346.496 64.9605 346.496C61.6618 346.496 58.8179 345.804 57.1876 344.842C56.9222 344.727 56.8843 344.535 56.8843 344.227V338.574C56.8843 338.19 57.0739 338.074 57.3394 338.267C59.7281 339.843 62.4581 340.535 64.9605 340.535C67.956 340.535 69.2073 339.266 69.2073 337.536C69.2073 336.152 68.3351 334.921 64.5055 332.922C59.1212 330.307 56.8843 327.653 56.8843 323.231C56.8843 318.271 60.714 314.156 67.3493 314.156C70.6102 314.156 72.8852 314.656 74.1364 315.233C74.4397 315.425 74.5155 315.733 74.5155 316.002V321.27C74.5155 321.578 74.326 321.77 73.9467 321.654C72.2784 320.578 69.8139 319.924 67.3493 319.924ZM34.7408 324.5C35.613 324.577 36.2955 324.577 37.8121 324.577C42.2486 324.577 46.4193 323.001 46.4193 316.886C46.4193 312.003 43.4238 309.542 38.381 309.542C36.8644 309.542 35.4234 309.619 34.7408 309.657V324.5ZM27.9918 304.081C27.9918 303.812 28.5227 303.62 28.8259 303.62C31.2527 303.504 34.8547 303.427 38.6084 303.427C49.1113 303.427 53.2063 309.272 53.2063 316.733C53.2063 326.5 46.2296 330.691 37.6605 330.691C36.2197 330.691 35.7269 330.614 34.7029 330.614V345.381C34.7029 345.688 34.5892 345.842 34.248 345.842H28.4467C28.1435 345.842 27.9917 345.727 27.9917 345.381V304.081H27.9918Z" fill="white"/>
</g>
<path d="M292.451 245.71L259.49 236.496L252.144 153.543H332.856L325.503 236.483L292.451 245.71Z" fill="white"/>
<path d="M319.208 231.202L325.491 160.326H292.5V238.657L319.208 231.202Z" fill="white"/>
<path d="M268.983 191.092L269.889 201.266H292.5V191.092H268.983ZM267.163 170.5L268.082 180.674H292.5V170.5H267.163ZM292.5 217.514L292.456 217.526L281.203 214.467L280.483 206.353H270.34L271.756 222.327L292.453 228.112L292.5 228.099V217.514Z" fill="#0D0D0D"/>
<path d="M271.139 131H283.377V136.153H276.257V141.306H283.378V146.459H271.139V131ZM285.825 131H298.063V135.481H290.942V136.377H298.063V146.683H285.825V141.978H292.945V141.081H285.824V131H285.825ZM300.51 131H312.748V135.481H305.628V136.377H312.748V146.683H300.51V141.978H307.631V141.081H300.511V131H300.51Z" fill="white"/>
<path d="M315.952 191.092L317.776 170.5H292.465V180.674H306.703L305.784 191.092H292.465V201.266H304.907L303.734 214.46L292.465 217.523V228.107L313.179 222.327L313.331 220.608L315.706 193.824L315.952 191.092Z" fill="#0D0D0D"/>
<path d="M289.467 283.321H303.504V347.657C296.314 349.017 291.021 349.552 285.294 349.552C268.15 349.534 259.226 341.875 259.226 327.165C259.226 312.992 268.692 303.794 283.361 303.794C285.637 303.794 287.371 303.973 289.467 304.509V283.321ZM289.959 316.103C288.315 315.566 286.96 315.388 285.226 315.388C278.126 315.388 274.025 319.718 274.025 327.308C274.025 334.697 277.946 338.777 285.136 338.777C286.689 338.777 287.954 338.689 289.959 338.421V316.103Z" fill="white"/>
<path d="M326.458 305.521V337.733C326.458 348.826 325.627 354.161 323.188 358.76C320.912 363.182 317.913 365.97 311.717 369.05L298.692 362.912C304.888 360.032 307.887 357.487 309.802 353.604C311.807 349.633 312.439 345.034 312.439 332.937V305.521H326.458V305.521ZM311.025 283.321H325.062V297.584H311.025V283.321Z" fill="white"/>
<g clip-path="url(#clip2)">
<path d="M20.1445 236.592L12.9972 153.004L89.9962 153.036L82.9089 236.529L51.4366 245.972L20.1445 236.592ZM77.1129 232.03L83.0891 160.438H51.5567L51.797 239.4L77.1129 232.03ZM48.6137 170.934H40.9559L40.8658 213.781L26.0005 209.474L26.0306 219.269L48.6137 225.745V170.934Z" fill="white"/>
<path d="M51.5565 160.406H83.0888L77.1127 231.999L51.5565 239.369V160.406ZM75.491 220.003L77.5631 193.236L62.2474 195.054V180.761L78.5842 180.697L79.2449 170.935L54.5896 171.062L54.9199 206.603L69.8152 203.892L69.605 211.804L54.5896 216.047L54.7397 225.746L75.491 220.003Z" fill="white"/>
</g>
<path d="M43.9769 466.162C42.8923 466.162 41.8249 465.74 41.027 464.941L16.3425 440.254V461.991C16.3425 464.296 14.4753 466.162 12.1713 466.162C9.86869 466.162 8 464.295 8 461.991V430.183C8 428.495 9.01785 426.975 10.5762 426.329C11.3381 426.013 12.1769 425.93 12.9861 426.091C13.7953 426.252 14.5385 426.65 15.1212 427.234L39.8057 451.92V430.183C39.8057 427.879 41.6729 426.012 43.9769 426.012C46.2814 426.012 48.1482 427.879 48.1482 430.183V461.991C48.1476 463.097 47.7079 464.158 46.9258 464.94C46.1437 465.722 45.083 466.162 43.9769 466.162V466.162ZM63.2929 426.052L62.1467 428.191L53.2821 444.302L52.1359 446.336L53.2821 448.368L62.1471 463.959L63.3447 466.096H86.5482L87.6944 463.75L94.3165 450.401L97.2882 444.353H90.5626L73.6175 444.405C71.4136 444.375 69.3862 446.372 69.3862 448.576C69.3862 450.78 71.4136 452.779 73.6175 452.747L83.8369 452.696L81.3343 457.753H68.1945L61.6757 446.282L68.2463 434.394H82.2231L85.4815 441.081H93.8773L88.5854 428.4L87.4373 426.052H63.2933H63.2929ZM105.55 426C103.365 426.027 101.403 428.039 101.431 430.223V441.094H109.773V430.223C109.8 428.004 107.768 425.972 105.55 426ZM118.922 466.242C117.816 466.242 116.755 465.802 115.974 465.02C115.192 464.238 114.752 463.177 114.752 462.071V430.263C114.752 427.959 116.619 426.092 118.923 426.092C121.228 426.092 123.094 427.959 123.094 430.263V452L147.78 427.313C148.363 426.729 149.106 426.332 149.915 426.171C150.724 426.01 151.563 426.093 152.325 426.409C153.087 426.725 153.738 427.259 154.196 427.946C154.655 428.632 154.899 429.438 154.899 430.263V462.071C154.899 464.375 153.032 466.242 150.728 466.242C148.423 466.242 146.557 464.375 146.557 462.071V440.334L121.871 465.021C121.484 465.409 121.024 465.716 120.518 465.925C120.012 466.135 119.469 466.243 118.921 466.242H118.922ZM185.797 446.135L198.773 433.207C200.405 431.582 200.41 428.94 198.783 427.307C197.158 425.675 194.518 425.672 192.885 427.297L179.889 440.248L166.893 427.297C165.26 425.67 162.62 425.675 160.996 427.307C159.369 428.94 159.374 431.582 161.004 433.207L173.98 446.136L161.042 459.028C159.409 460.655 159.405 463.294 161.032 464.926C161.419 465.316 161.879 465.625 162.386 465.836C162.894 466.047 163.438 466.155 163.987 466.154C165.052 466.154 166.116 465.748 166.93 464.936L179.889 452.024L192.847 464.936C193.233 465.323 193.692 465.629 194.198 465.838C194.703 466.047 195.245 466.154 195.791 466.154C196.863 466.154 197.931 465.745 198.746 464.926C200.371 463.294 200.368 460.655 198.736 459.028L185.797 446.135ZM105.55 466.124C103.365 466.097 101.403 464.085 101.431 461.901V444.44H109.773V461.901C109.8 464.118 107.768 466.15 105.55 466.124Z" fill="white"/>
<path d="M338 433C338 438.627 336.808 443.977 334.662 448.809C334.313 449.598 333.936 450.373 333.537 451.134C327.008 463.541 313.992 472 299 472C283.204 472 269.602 462.61 263.47 449.106C262.4 446.75 261.558 444.27 260.973 441.693C260.336 438.898 260 435.988 260 433C260 411.461 277.461 394 299 394C316.521 394 331.343 405.554 336.265 421.459C336.421 421.965 336.567 422.478 336.704 422.994V422.995C336.959 423.96 337.179 424.936 337.36 425.927C337.445 426.389 337.521 426.852 337.588 427.319C337.634 427.631 337.677 427.943 337.713 428.258C337.784 428.821 337.839 429.39 337.884 429.961C337.96 430.964 338 431.978 338 433Z" fill="white"/>
<path d="M316.057 405.824C316.057 405.824 317.187 406.987 317.381 407.858C317.381 407.858 318.188 407.245 317.639 406.276C317.09 405.307 316.057 405.824 316.057 405.824Z" fill="#0D0D0D"/>
<path d="M336.704 422.994C335.689 422.483 334.765 422.18 334.043 422.002C333.065 421.76 332.274 421.041 331.932 420.093C331.493 418.879 330.674 416.911 329.169 413.93C326.197 408.053 322.903 406.244 320.74 404.726C319.32 403.729 317.454 403.527 316.34 403.505C315.778 403.494 315.237 403.289 314.806 402.927C313.671 401.972 311.439 400.85 310.729 401.27C309.856 401.787 310.729 402.983 311.955 404.5C313.182 406.019 313.441 407.698 314.312 409.958C314.715 411.001 315.2 411.631 315.605 412.007C316.028 412.402 316.167 413.015 315.942 413.546C315.124 415.481 314.85 417.93 315.313 420.195C315.863 422.876 317.122 422.844 317.122 422.844C316.993 419.259 318.866 417.709 318.866 417.709C320.578 422.94 324.486 426.848 324.486 426.848C321.321 425.718 318.964 420.551 318.964 420.551C318.964 420.551 318.706 420.809 318.48 422.521C318.254 424.233 316.186 425.266 314.669 421.52C313.15 417.773 315.121 413.058 315.121 413.058C314.248 412.606 312.44 408.44 312.44 407.794C312.44 407.149 311.728 405.727 310.858 404.855C309.986 403.984 308.274 401.465 310.277 400.302C312.278 399.139 316.251 402.271 316.251 402.271C322.516 402.045 328.975 409.667 330.008 412.38C331.041 415.092 333.947 420.519 333.947 420.519C334.772 420.769 335.547 421.092 336.265 421.459C336.421 421.965 336.567 422.478 336.704 422.994Z" fill="#0D0D0D"/>
<path d="M337.884 429.961C337.852 429.947 337.822 429.931 337.791 429.916C335.789 428.947 334.982 426.913 334.982 426.913C335.501 426.394 336.421 426.096 337.36 425.927C337.445 426.389 337.521 426.852 337.588 427.319C337.238 427.387 337.016 427.428 337.016 427.428C337.016 427.626 337.292 427.92 337.714 428.258C337.784 428.821 337.839 429.39 337.884 429.961Z" fill="#0D0D0D"/>
<path d="M280.318 451.077H277.267C277.267 451.077 277.267 444.103 276.249 435.819L271.453 451.077H268.983L264.115 435.892C264.115 435.892 263.548 440.354 263.47 449.106C262.4 446.75 261.558 444.27 260.973 441.693C261.197 438.454 261.512 434.923 261.936 432.042H265.907L270.436 446.138L275.232 432.042H278.865C278.865 432.042 280.318 444.466 280.318 451.077Z" fill="#3D3D3D"/>
<path d="M282.002 437.182L285.151 437.134C285.151 437.134 288.687 447.742 288.348 449.05C288.348 449.05 290.625 442.704 291.206 437.134H294.306C294.306 437.134 292.659 448.372 287.621 454.282C285.736 456.494 283.62 456.521 281.711 455.689V453.992C281.711 453.992 284.327 454.912 285.684 452.974C286.776 451.414 285.733 448.724 284.779 445.864C284.548 445.172 282.002 437.182 282.002 437.182Z" fill="#3D3D3D"/>
<path d="M296.244 449.68L297.067 448.033C297.067 448.033 302.735 450.551 304.188 448.033C305.641 445.514 304.237 444.157 301.379 442.655C298.521 441.154 295.517 439.265 296.825 435.147C298.133 431.029 305.06 431.32 307.046 433.306L306.368 434.905C306.368 434.905 301.233 432.725 299.829 435.583C298.424 438.441 302.154 439.797 303.026 440.185C303.898 440.572 308.742 442.558 308.209 446.095C307.676 449.631 305.496 451.811 300.507 451.375C298.714 450.939 297.697 450.648 296.244 449.68Z" fill="#0D0D0D"/>
<path d="M321.768 449.91C323.909 448.189 324.828 445.128 324.828 441.639C324.828 436.257 323.279 431.894 317.16 431.894C311.891 431.894 309.492 436.257 309.492 441.639C309.492 447.021 311.246 451.384 317.16 451.384C318.016 451.384 318.793 451.278 319.493 451.077L324.049 453.75L325.163 451.569L321.768 449.91ZM317.16 449.05C313.731 449.05 312.714 445.732 312.714 441.639C312.714 437.545 313.683 434.227 317.16 434.227C320.706 434.227 321.604 437.545 321.604 441.639C321.604 445.732 320.706 449.05 317.16 449.05Z" fill="#0D0D0D"/>
<path d="M334.662 448.809C334.313 449.598 333.936 450.373 333.536 451.134H327.537V432.144H330.541V448.808H334.662V448.809Z" fill="#0D0D0D"/>
<defs>
<radialGradient id="paint0_radial" cx="0" cy="0" r="1" gradientUnits="userSpaceOnUse" gradientTransform="translate(273.952 45.0482) scale(64.7901 61.5573)">
<stop stop-color="#0D0D0D"/>
<stop offset="1" stop-color="#0D0D0D"/>
</radialGradient>
<linearGradient id="paint1_linear" x1="133.932" y1="279.259" x2="185.049" y2="329.664" gradientUnits="userSpaceOnUse">
<stop stop-color="white"/>
<stop offset="1" stop-color="white"/>
</linearGradient>
<linearGradient id="paint2_linear" x1="165.184" y1="311.758" x2="220.068" y2="363.434" gradientUnits="userSpaceOnUse">
<stop stop-color="white"/>
<stop offset="1" stop-color="white"/>
</linearGradient>
<clipPath id="clip0">
<rect width="93" height="89" fill="white" transform="translate(242 23)"/>
</clipPath>
<clipPath id="clip1">
<rect width="91" height="90" fill="white" transform="translate(6 283)"/>
</clipPath>
<clipPath id="clip2">
<rect width="77" height="93" fill="white" transform="translate(13 153)"/>
</clipPath>
</defs>
</svg>
